<svg width="48" height="36" viewBox="0 0 48 36" fill="none" xmlns="http://www.w3.org/2000/svg">
<path d="M18.61 24.8149C18.61 26.7742 17.52 29.9804 14.94 29.9804C12.36 29.9804 11.27 26.7742 11.27 24.8149C11.27 22.8556 12.36 19.6494 14.94 19.6494C17.52 19.6494 18.61 22.8556 18.61 24.8149V24.8149ZM48 20.0807C48 23.0712 47.68 26.2398 46.25 28.9866C42.46 36.1677 32.04 35.9989 24.58 35.9989C17 35.9989 5.96 36.252 2.02 28.9866C0.56 26.268 0 23.0712 0 20.0807C0 16.1526 1.39 12.4403 4.15 9.43097C3.63 7.94976 3.38 6.39356 3.38 4.85611C3.38 2.84054 3.87 1.82807 4.84 0C9.37 0 12.27 0.843725 15.72 3.3749C18.62 2.72804 21.6 2.43743 24.59 2.43743C27.29 2.43743 30.01 2.70929 32.63 3.2999C36.03 0.796851 38.93 0 43.41 0C44.39 1.82807 44.87 2.84054 44.87 4.85611C44.87 6.39356 44.61 7.92164 44.1 9.37472C46.85 12.4121 48 16.1526 48 20.0807V20.0807ZM41.57 24.8149C41.57 20.6994 38.9 17.0714 34.22 17.0714C32.33 17.0714 30.52 17.3901 28.62 17.6339C27.13 17.8495 25.64 17.9338 24.11 17.9338C22.59 17.9338 21.1 17.8495 19.6 17.6339C17.73 17.3901 15.9 17.0714 14 17.0714C9.32 17.0714 6.65 20.6994 6.65 24.8149C6.65 33.0459 14.69 34.3115 21.69 34.3115H26.51C33.54 34.3115 41.57 33.0553 41.57 24.8149V24.8149ZM33.31 19.6494C30.73 19.6494 29.64 22.8556 29.64 24.8149C29.64 26.7742 30.73 29.9804 33.31 29.9804C35.89 29.9804 36.98 26.7742 36.98 24.8149C36.98 22.8556 35.89 19.6494 33.31 19.6494Z" fill="#383552"/>
</svg>
