<svg width="48" height="36" viewBox="0 0 48 36" fill="none" xmlns="http://www.w3.org/2000/svg">
<path d="M44.5714 0H3.41786C1.53214 0 0 1.16518 0 2.59554V33.4045C0 34.8348 1.53214 36 3.41786 36H44.5714C46.4571 36 48 34.8348 48 33.4045V2.59554C48 1.16518 46.4571 0 44.5714 0ZM14.5071 30.8571H7.39286V13.6768H14.5179V30.8571H14.5071ZM10.95 11.3304C8.66786 11.3304 6.825 9.94018 6.825 8.23661C6.825 6.53304 8.66786 5.14286 10.95 5.14286C13.2214 5.14286 15.075 6.53304 15.075 8.23661C15.075 9.94821 13.2321 11.3304 10.95 11.3304V11.3304ZM41.175 30.8571H34.0607V22.5C34.0607 20.5071 34.0071 17.9438 30.3643 17.9438C26.6571 17.9438 26.0893 20.1134 26.0893 22.3554V30.8571H18.975V13.6768H25.8V16.0232H25.8964C26.85 14.6732 29.175 13.2509 32.6357 13.2509C39.8357 13.2509 41.175 16.8107 41.175 21.4393V30.8571V30.8571Z" fill="#383552"/>
</svg>
