<svg width="49" height="37" viewBox="0 0 49 37" fill="none" xmlns="http://www.w3.org/2000/svg">
<path d="M0.5 4.625V32.625C0.5 34.825 2.87333 36.625 5.83333 36.625H43.1667C46.1 36.625 48.5 34.825 48.5 32.625V4.625C48.5 2.425 46.1 0.625 43.1667 0.625H5.83333C2.87333 0.625 0.5 2.425 0.5 4.625ZM32.5 12.625C32.5 15.945 28.9267 18.625 24.5 18.625C20.0733 18.625 16.5 15.945 16.5 12.625C16.5 9.305 20.0733 6.625 24.5 6.625C28.9267 6.625 32.5 9.305 32.5 12.625ZM8.5 28.625C8.5 24.625 19.1667 22.425 24.5 22.425C29.8333 22.425 40.5 24.625 40.5 28.625V30.625H8.5V28.625Z" fill="#383552"/>
</svg>
