<svg width="48" height="37" viewBox="0 0 48 37" fill="none" xmlns="http://www.w3.org/2000/svg">
<path d="M19.2 26.625V24.625H2.424L2.4 32.625C2.4 34.845 4.536 36.625 7.2 36.625H40.8C43.464 36.625 45.6 34.845 45.6 32.625V24.625H28.8V26.625H19.2ZM43.2 8.625H33.576V4.625L28.776 0.625H19.176L14.376 4.625V8.625H4.8C2.16 8.625 0 10.425 0 12.625V18.625C0 20.845 2.136 22.625 4.8 22.625H19.2V18.625H28.8V22.625H43.2C45.84 22.625 48 20.825 48 18.625V12.625C48 10.425 45.84 8.625 43.2 8.625ZM28.8 8.625H19.2V4.625H28.8V8.625Z" fill="#383552"/>
</svg>
